<svg xmlns="http://www.w3.org/2000/svg" viewBox="0 0 290.56 102.92"><defs><style>.cls-1{fill:#fff;}</style></defs><title>Asset 3</title><g id="Layer_2" data-name="Layer 2"><g id="Layer_1-2" data-name="Layer 1"><path class="cls-1" d="M128.08,76.38c-2.27,2.5-4.44,5.06-6.81,7.43a13.44,13.44,0,0,1-7.2,3.82c-5.5,1-10.73-.95-11.13-8.88a37.64,37.64,0,0,1,1.78-12.16c2.86-10.23,7.49-19.68,12.56-28.94a1.39,1.39,0,0,1,1-.7c4.48,0,9,0,13.71,0-.35.61-.55,1-.77,1.32A87.34,87.34,0,0,0,120.09,63.6a50.51,50.51,0,0,0-.84,6.27,4.09,4.09,0,0,0,.2,1.54c.36,1.29,1.06,1.73,2.22,1.1A16,16,0,0,0,125.14,70c1.49-1.44,2.82-3,4.17-4.63a4.54,4.54,0,0,0,.75-1.47c3-8.77,7.62-16.53,14.91-22.47A18.28,18.28,0,0,1,156.72,37c3.85,0,6.34,1.82,7.83,5.22.36.83.6,1.73.94,2.72a8.6,8.6,0,0,0,.52-.75c1.15-2.15,2.26-4.32,3.45-6.44A1.67,1.67,0,0,1,170.6,37c4.28,0,8.56,0,12.84.09a5.14,5.14,0,0,1,.54.06c-1.33,2.32-2.66,4.53-3.88,6.8A76.56,76.56,0,0,0,172,65.19a25.36,25.36,0,0,0-.37,5.71c.08,1.77,1.23,2.39,2.71,1.42a32.58,32.58,0,0,0,4.37-3.69,14.69,14.69,0,0,0,4.05-6.49,120.73,120.73,0,0,1,10.72-23.89,1.93,1.93,0,0,1,2-1.11c3.63.07,7.27.07,10.91.1a6.1,6.1,0,0,1,.71.06Q203,46,198.91,54.73l.41.21.67-1.1c3.15-5.2,6.65-10.1,11.82-13.52a19.27,19.27,0,0,1,11.36-3.57c5.44.14,8.93,4.24,8.28,9.65-.39,3.19-1.75,6-2.86,9-1.57,4.14-3.11,8.3-4.53,12.49a10,10,0,0,0-.44,3.65,1.72,1.72,0,0,0,2.73,1.53c2.39-1.39,4.34-3,5-6.12C234,54.23,241,44.5,252.56,38.42A20.33,20.33,0,0,1,268,36.63c5.38,1.55,8.07,5.64,9.34,10.77,1.47,5.87.67,11.66-1,17.38-.14.45-.28.9-.47,1.54,2.91.07,5.62-.38,7.82-2.16a33.16,33.16,0,0,0,4.43-4.66A1.36,1.36,0,0,1,290,59c.89.35.61,1,.4,1.58a19.79,19.79,0,0,1-17,13.18,1.94,1.94,0,0,0-1.69,1c-3.86,5.88-8.8,10.47-15.69,12.5a24.89,24.89,0,0,1-15.22-.39,13.85,13.85,0,0,1-9.13-9.45c-.11-.34-.21-.68-.33-1,0,0,0,0,0,0-1.83,2-3.56,4.2-5.51,6.12-2.73,2.68-5.77,5-9.66,5.73a12.31,12.31,0,0,1-7.95-.89,6.4,6.4,0,0,1-3.71-5.62A22,22,0,0,1,206,72c1.84-4.77,3.85-9.47,5.73-14.21a31.88,31.88,0,0,0,1.4-4.45,2.05,2.05,0,0,0-.48-1.7,1.68,1.68,0,0,0-1.61.14A33.8,33.8,0,0,0,206.4,56a65.73,65.73,0,0,0-12.48,24.22c-.71,2.49-1.23,5-1.85,7.62H176.84c.39-2.93.78-5.78,1.18-8.77-1.32,1.41-2.49,2.77-3.76,4a15.6,15.6,0,0,1-8.86,4.65c-5.66.83-9.75-2.38-10.16-8.08a31.2,31.2,0,0,0-.23-3.54l-1,1.44a26.7,26.7,0,0,1-8.26,8.23,12.75,12.75,0,0,1-9.57,1.58q-6.73-1.44-7.85-9.13C128.25,77.6,128.16,76.94,128.08,76.38ZM257,69.93c-2-3-2-5.67-.08-8.16,2.13-2.81,4.9-3.58,8.75-2.36.18-.6.39-1.19.54-1.79.76-3.15,1.13-6.3-.05-9.43a4.22,4.22,0,0,0-4.41-3,11.28,11.28,0,0,0-7.85,3.1,38.67,38.67,0,0,0-5.47,6.45,16.59,16.59,0,0,0-2.95,11.36,5,5,0,0,0,2.93,4.22C251.31,71.63,254.15,71.08,257,69.93ZM160.15,52.59l.32-.08A47,47,0,0,0,159,47c-.7-1.75-2-2.09-3.73-1.4a9.16,9.16,0,0,0-4.12,3.54A31.06,31.06,0,0,0,145.75,62a20.41,20.41,0,0,0,0,6.29,3,3,0,0,0,4.46,2.3,8.63,8.63,0,0,0,3.3-2.46,81.73,81.73,0,0,0,4.6-7.13A16.94,16.94,0,0,0,160.15,52.59Z"/><path class="cls-1" d="M64.77,65.42c-.66-1.79-1.29-3.47-2-5.35-1.3,2.81-2.48,5.43-3.74,8C55.94,74.48,53,81,48.77,86.75a59.42,59.42,0,0,1-16.1,15.59,3.62,3.62,0,0,1-1.76.56q-15,0-30,0c-.27,0-.55,0-.91-.06V75a46.16,46.16,0,0,0,6.49,2.37C13,78.69,19.18,77.17,25,74.09,32.79,70,39,64,44.59,57.23c7.77-9.37,13.85-19.85,19.9-30.33,2.46-4.25,4.71-8.62,7.13-13.07l8.89,2.28L65.62,53.9c2.44-1.18,4.78-2.26,7.07-3.44,6.06-3.13,11.87-6.63,16.65-11.59A28,28,0,0,0,96,28.62a12.28,12.28,0,0,0-5.27-14.9,20.87,20.87,0,0,0-11.51-3.18c-9.32,0-17.86,2.6-25.18,8.45A32.27,32.27,0,0,0,41.85,39.12a22.19,22.19,0,0,0,.32,9.63,1.5,1.5,0,0,1-.93,2c-5.6,3-11,2.27-16.15-1-6.17-3.89-9.15-9.75-9.57-16.94-.66-11.19,4.18-20,12-27.5,1.95-1.87,4-3.91,6.41-4.93C35.87-.38,38.42.2,40.69.2q30.78,0,61.56,0a3.84,3.84,0,0,1,3.11,1.33c4.92,5.27,7.79,11.4,7.72,18.68a31.13,31.13,0,0,1-6.58,18.67c-5.91,7.9-13.57,13.71-22.21,18.3A134,134,0,0,1,64.77,65.42Z"/><path class="cls-1" d="M128.37,30.91a26,26,0,0,1-3.06-.51C120,28.91,118,23.5,121,18.91a12.23,12.23,0,0,1,13.1-4.79c5.81,1.71,7.53,8.13,3.39,12.67A12.49,12.49,0,0,1,128.37,30.91Z"/></g></g></svg>